<?xml version="1.0" ?>
<svg xmlns="http://www.w3.org/2000/svg" xmlns:ev="http://www.w3.org/2001/xml-events" xmlns:xlink="http://www.w3.org/1999/xlink" baseProfile="full" height="38.6" version="1.1" viewBox="0.0 0.0 38.73 38.6" width="38.73">
	<defs/>
	<path d="M 17.84,17.83 L 17.84,15.93 M 17.44,10.88 L 17.84,10.83 L 17.84,8.73" fill="none" stroke="#ffffff" stroke-linecap="round" stroke-linejoin="round" stroke-width="5.0"/>
	<path d="M 17.84,15.93 Q 16.54,16.23 15.49,17.23 L 15.44,17.28 Q 13.89,18.88 13.89,21.13 Q 13.89,23.38 15.44,24.98 L 15.49,25.03 Q 17.14,26.58 19.34,26.58 Q 21.64,26.58 23.24,25.03 Q 24.84,23.43 24.84,21.13 L 24.84,20.28 Q 24.69,19.23 25.39,18.48 Q 26.04,17.68 27.04,17.58 Q 28.04,17.43 28.89,18.13 Q 29.69,18.78 29.79,19.78 L 29.84,21.13 Q 29.84,25.53 26.74,28.58 Q 23.74,31.58 19.34,31.58 Q 15.04,31.58 11.94,28.58 Q 8.89,25.53 8.89,21.13 Q 8.89,16.73 11.94,13.68 Q 14.29,11.38 17.44,10.88" fill="none" stroke="#ffffff" stroke-linecap="round" stroke-linejoin="round" stroke-width="6.0"/>
	<path d="M 17.84,8.73 Q 17.84,7.43 18.64,7.53 Q 19.44,7.58 23.29,10.08 L 27.54,12.93 Q 27.94,13.28 27.29,13.98 Q 26.64,14.73 19.59,18.68 Q 17.74,19.58 17.84,17.83" fill="none" stroke="#ffffff" stroke-linecap="round" stroke-linejoin="round" stroke-width="7.0"/>
	<path d="M 17.84,17.83 L 17.84,15.93 Q 16.54,16.23 15.49,17.23 L 15.44,17.28 Q 13.89,18.88 13.89,21.13 Q 13.89,23.38 15.44,24.98 L 15.49,25.03 Q 17.14,26.58 19.34,26.58 Q 21.64,26.58 23.24,25.03 Q 24.84,23.43 24.84,21.13 L 24.84,20.28 Q 24.69,19.23 25.39,18.48 Q 26.04,17.68 27.04,17.58 Q 28.04,17.43 28.89,18.13 Q 29.69,18.78 29.79,19.78 L 29.84,21.13 Q 29.84,25.53 26.74,28.58 Q 23.74,31.58 19.34,31.58 Q 15.04,31.58 11.94,28.58 Q 8.89,25.53 8.89,21.13 Q 8.89,16.73 11.94,13.68 Q 14.29,11.38 17.44,10.88 L 17.84,10.83 L 17.84,8.73" fill="none" stroke="#000000" stroke-linecap="round" stroke-linejoin="round" stroke-width="3.0"/>
	<path d="M 17.84,8.73 Q 17.84,7.43 18.64,7.53 Q 19.44,7.58 23.29,10.08 L 27.54,12.93 Q 27.94,13.28 27.29,13.98 Q 26.64,14.73 19.59,18.68 Q 17.74,19.58 17.84,17.83" fill="none" stroke="#000000" stroke-linecap="round" stroke-linejoin="round" stroke-width="4.0"/>
	<path d="M 17.79,13.33 L 17.79,8.73 Q 17.79,7.43 18.59,7.53 Q 19.39,7.58 23.24,10.08 L 27.49,12.93 Q 27.89,13.28 27.24,13.98 Q 26.59,14.73 19.54,18.68 Q 17.69,19.58 17.79,17.83 L 17.79,13.33" fill="#6aa6a0" fill-rule="evenodd" stroke="none"/>
	<path d="M 17.94,23.98 L 17.69,23.78 L 16.84,22.93 L 16.49,22.43 L 16.34,22.23 L 15.94,21.68 Q 15.79,21.53 15.79,21.23 L 15.84,20.98 Q 15.99,20.78 16.29,20.98 L 18.09,21.53 L 20.14,21.13 L 22.79,20.03 L 22.99,20.13 L 23.04,20.33 L 22.99,21.83 Q 22.09,24.08 19.79,24.58 L 19.19,24.53 L 18.39,24.23 L 17.94,23.98" fill="#ffffff" fill-rule="evenodd" stroke="none"/>
	<path d="M 17.79,13.33 Q 15.44,13.73 13.64,15.48 Q 11.34,17.83 11.34,21.13 Q 11.34,24.48 13.64,26.78 Q 16.04,29.08 19.29,29.08 Q 22.64,29.08 24.94,26.78 Q 27.29,24.48 27.29,21.13 L 27.24,20.03" fill="none" stroke="#6aa6a0" stroke-linecap="round" stroke-linejoin="round" stroke-width="4.0"/>
</svg>
