<?xml version="1.0" ?>
<svg xmlns="http://www.w3.org/2000/svg" xmlns:ev="http://www.w3.org/2001/xml-events" xmlns:xlink="http://www.w3.org/1999/xlink" baseProfile="full" height="38.6" version="1.1" viewBox="0.0 0.0 38.73 38.6" width="38.73">
	<defs/>
	<path d="M 31.88,26.05 L 31.86,28.73 Q 31.86,30.06 31.56,31.4 Q 31.37,32.65 30.72,33.55 Q 29.73,34.98 28.97,34.74 Q 28.48,34.54 27.88,33.36 L 27.16,32.07 L 27.16,32.04 Q 25.48,29.24 24.56,28.01 Q 23.63,26.85 22.9,26.18 L 22.88,26.16 L 21.37,24.89 L 21.3,24.83 Q 19.43,26.46 17.17,27.56 L 17.19,27.56 L 16.54,27.89 L 16.45,27.91 L 15.44,28.12 L 15.38,28.12 Q 14.54,28.12 14.06,27.69 Q 13.57,27.43 13.26,25.92 L 12.14,22.37 L 12.14,22.39 Q 11.41,20.3 10.61,18.64 L 8.11,13.64 L 5.77,9.37 L 4.77,7.69 L 4.43,7.11 L 4.21,6.81 L 4.15,6.72 Q 3.4,5.86 3.78,5.21 Q 4.17,4.72 5.27,4.74 L 7.32,5.09 Q 10.1,5.73 12.62,7.43 L 12.6,7.43 Q 15.01,9.05 16.71,10.67 L 16.73,10.67 Q 18.46,12.3 19.32,13.58 L 19.62,14.03 L 20.87,12.8 L 20.87,12.82 L 23.59,9.8 Q 24.77,8.36 26.24,9.22 Q 27.73,9.85 29.19,12.84 Q 30.89,16.38 31.45,19.78 L 31.45,19.8 Q 31.95,23.12 31.88,26.01 L 31.88,26.05 M 26.69,25.9 Q 27.42,26.94 27.83,27.76 L 29.02,30.08 L 29.08,29.46 Q 29.21,26.14 28.8,22.8 Q 28.35,19.46 27.14,16.38 Q 26.39,14.39 25.14,12.74 Q 23.24,15.24 21.52,16.59 L 19.36,18.21 L 18.85,18.25 Q 14.15,11.64 8.14,8.4 L 8.65,9.24 Q 10.98,12.95 12.58,16.12 Q 14.15,19.31 14.86,21.44 L 15.94,24.83 L 17.7,23.9 Q 19.17,23.01 21.04,21.31 Q 23.48,22.48 24.73,23.66 Q 25.96,24.85 26.69,25.9" fill="#ffffff" fill-rule="evenodd" stroke="none"/>
	<path d="M 33.41,27.84 Q 33.44,27.54 34.19,27.61 L 35.96,27.95 Q 37.16,28.1 36.73,28.98 Q 36.52,29.18 36.15,29.18 L 35.68,29.11 L 35.42,29.05 L 34.6,28.79 L 33.97,28.51 L 33.63,28.29 Q 33.41,28.08 33.41,27.84" fill="#ede9c7" fill-rule="evenodd" stroke="none"/>
	<path d="M 31.88,26.05 L 31.88,26.01 Q 31.95,23.12 31.45,19.8 L 31.45,19.78 Q 30.89,16.38 29.19,12.84 Q 27.73,9.85 26.24,9.22 Q 24.77,8.36 23.59,9.8 L 20.87,12.82 L 20.87,12.8 L 19.62,14.03 L 19.32,13.58 Q 18.46,12.3 16.73,10.67 L 16.71,10.67 Q 15.01,9.05 12.6,7.43 L 12.62,7.43 Q 10.1,5.73 7.32,5.09 L 5.27,4.74 Q 4.17,4.72 3.78,5.21 Q 3.4,5.86 4.15,6.72 L 4.21,6.81 L 4.43,7.11 L 4.77,7.69 L 5.77,9.37 L 8.11,13.64 L 10.61,18.64 Q 11.41,20.3 12.14,22.39 L 12.14,22.37 L 13.26,25.92 Q 13.57,27.43 14.06,27.69 Q 14.54,28.12 15.38,28.12 L 15.44,28.12 L 16.45,27.91 L 16.54,27.89 L 17.19,27.56 L 17.17,27.56 Q 19.43,26.46 21.3,24.83 L 21.37,24.89 L 22.88,26.16 L 22.9,26.18 Q 23.63,26.85 24.56,28.01 Q 25.48,29.24 27.16,32.04 L 27.16,32.07 L 27.88,33.36 Q 28.48,34.54 28.97,34.74 Q 29.73,34.98 30.72,33.55 Q 31.37,32.65 31.56,31.4 Q 31.86,30.06 31.86,28.73 L 31.88,26.05" fill="none" stroke="#ffffff" stroke-linecap="round" stroke-linejoin="round" stroke-width="1.000106787522572"/>
	<path d="M 18.91,9.65 Q 18.67,9.63 18.74,7.91 Q 18.8,6.18 19.06,4.87 Q 19.32,3.56 19.58,3.23 Q 19.84,2.89 20.12,2.89 Q 20.38,2.87 20.59,3.04 Q 20.79,3.19 20.83,3.71 Q 20.83,4.2 20.38,5.86 L 19.58,8.38 L 19.19,9.44 Q 19.13,9.65 18.91,9.65 M 33.59,7.2 Q 33.89,6.96 34.17,6.94 Q 34.56,6.9 34.73,7.15 Q 34.88,7.41 34.73,7.82 Q 34.58,8.23 33.2,9.12 L 30.98,10.45 Q 30.14,10.9 30.14,10.54 Q 30.14,10.26 30.38,9.93 L 30.55,9.72 L 33.59,7.2 M 35.63,17.17 L 35.14,17.3 L 34.15,17.41 L 33.16,17.43 Q 32.9,17.43 32.75,17.28 Q 32.6,17.13 32.72,16.87 Q 33.44,16.51 34.25,16.27 L 35.33,16.03 L 35.59,16.08 L 35.81,16.16 L 36.04,16.36 L 36.15,16.59 L 36.06,16.85 L 35.94,17.02 L 35.63,17.17 M 30.01,27.07 Q 30.18,27.89 30.1,28.66 L 30.18,29.46 Q 30.22,30.15 30.12,30.49 Q 29.88,31.12 29.36,31.14 Q 28.82,31.2 28.52,30.6 Q 27.06,30.23 27.14,28.57 L 26.54,28.19 L 26.24,27.84 Q 26.07,27.61 25.96,27.3 Q 25.51,26.1 24.6,25.21 L 21.73,22.35 L 21.37,22.71 Q 19.64,24.26 17.38,24.26 L 16.95,24.55 L 16.99,25.28 Q 16.97,25.49 16.71,25.43 L 16.22,25.28 L 16.17,25.34 Q 15.92,25.62 15.51,25.43 Q 14.97,25.08 15.1,24.48 L 15.2,24.31 Q 15.03,23.98 14.97,23.6 L 14.77,22.63 Q 14.49,22.33 14.32,21.85 Q 13.18,18.73 11.45,15.77 Q 10.1,13.51 9.08,11.23 L 8.03,9.89 L 7.94,9.65 L 7.94,9.4 L 7.96,9.37 L 7.83,9.22 Q 7.6,8.94 7.6,8.68 Q 7.62,8.43 7.88,8.27 Q 8.09,8.12 8.35,8.17 Q 8.7,8.21 9.26,8.64 L 12.06,10.52 Q 13.89,11.7 14.84,12.43 Q 16.82,13.96 17.88,15.62 L 19.82,17.26 L 20.66,16.42 L 23.82,13.3 L 23.8,12.84 Q 23.8,12.56 24.1,12.41 Q 24.38,12.26 24.64,12.22 L 24.84,12.28 Q 25.33,11.9 25.74,11.98 Q 26.19,12.05 26.58,12.76 L 27.88,14.89 Q 28.54,16.12 28.89,17.15 Q 29.51,19.05 29.6,22.69 L 29.58,24.91 L 29.51,25.67 L 29.56,25.84 Q 29.86,26.36 30.01,27.07 M 6.22,13.38 Q 6.37,13.6 6.3,13.75 Q 6.24,13.9 6.05,13.94 L 5.33,14.03 L 3.27,14.16 L 2.64,14.11 Q 2.27,14.07 2.06,13.86 L 1.91,13.62 Q 1.8,13.25 2.17,12.97 Q 2.47,12.8 2.88,12.76 L 4.54,12.82 Q 5.61,12.89 6.07,13.23 L 6.22,13.38 M 3.09,22.45 Q 2.81,22.43 2.6,22.2 Q 2.38,21.96 2.38,21.68 Q 2.38,21.33 2.64,21.01 L 3.2,20.56 Q 4.19,19.89 5.61,19.31 Q 7.02,18.73 7.42,18.64 L 8.14,18.62 Q 8.42,18.7 8.44,18.92 L 8.07,19.42 L 6.5,20.54 L 4.36,21.89 Q 3.42,22.48 3.09,22.45 M 7.4,31.48 L 6.84,31.85 Q 6.46,31.92 6.26,31.53 Q 6.13,31.2 6.24,30.84 L 6.54,30.13 Q 6.78,29.67 7.25,29.16 L 8.61,27.76 Q 9.49,26.87 10.33,26.33 Q 11.17,25.77 11.24,26.14 L 11.11,26.66 L 9.73,28.68 L 7.4,31.48 M 16.52,29.76 Q 16.71,29.2 16.91,29.18 L 17.23,29.24 Q 17.34,29.33 17.36,29.91 L 17.19,32.95 L 17.06,33.9 Q 16.97,34.35 16.8,34.52 Q 16.58,34.74 16.3,34.74 Q 16.02,34.74 15.81,34.52 L 15.59,34.03 Q 15.48,33.51 15.7,32.63 L 16.09,31.03 L 16.52,29.76 M 24.32,31.2 Q 24.49,31.05 24.62,31.25 Q 24.75,31.42 24.56,32.71 Q 24.73,31.79 24.64,32.32 L 24.13,35.28 L 23.95,35.54 Q 23.76,35.75 23.46,35.71 Q 23.2,35.69 23.05,35.41 L 22.96,34.95 L 23.57,33.08 Q 24.13,31.33 24.32,31.2" fill="#ede9c7" fill-rule="evenodd" stroke="none"/>
	<path d="M 30.4,19.95 Q 30.89,23.21 30.83,26.03 L 30.81,28.66 Q 30.81,29.91 30.53,31.16 Q 30.38,32.2 29.86,32.93 Q 29.47,33.49 29.3,33.45 Q 29.13,33.4 28.85,32.86 L 28.11,31.51 Q 26.39,28.6 25.42,27.35 L 23.63,25.36 L 22.04,24.03 L 21.24,23.42 Q 19.23,25.36 16.71,26.59 L 16.07,26.92 L 15.4,27.04 L 14.75,26.85 Q 14.51,26.66 14.32,25.6 L 14.32,25.62 L 13.18,22.02 Q 12.42,19.89 11.61,18.17 L 9.08,13.15 L 6.8,8.9 L 6.05,7.69 L 5.46,6.74 Q 5.01,6.08 5.64,5.86 Q 6.28,5.8 7.6,6.16 Q 9.82,6.74 12.08,8.32 Q 14.34,9.89 16.0,11.44 Q 17.64,12.99 18.98,14.78 L 19.51,15.56 L 21.67,13.55 L 24.49,10.54 Q 24.9,10.08 25.29,10.11 Q 26.58,9.91 28.24,13.32 Q 29.88,16.7 30.4,19.95 M 26.71,25.9 L 27.85,27.76 L 29.04,30.08 L 29.1,29.46 Q 29.23,26.14 28.82,22.8 Q 28.37,19.46 27.16,16.38 Q 26.41,14.39 25.16,12.74 Q 23.26,15.24 21.54,16.59 L 19.39,18.21 L 18.87,18.25 Q 14.17,11.64 8.16,8.4 L 8.67,9.24 Q 11.0,12.95 12.6,16.12 Q 14.17,19.31 14.88,21.44 L 15.96,24.83 L 17.73,23.9 Q 19.19,23.01 21.07,21.31 Q 23.5,22.48 24.75,23.66 Q 25.98,24.85 26.71,25.9" fill="#000000" fill-rule="evenodd" stroke="none"/>
</svg>
